<svg width="596" height="765" xmlns="http://www.w3.org/2000/svg" xmlns:xlink="http://www.w3.org/1999/xlink" xml:space="preserve" overflow="hidden"><defs><filter id="fx0" x="-10%" y="-10%" width="120%" height="120%" filterUnits="userSpaceOnUse" primitiveUnits="userSpaceOnUse"><feComponentTransfer color-interpolation-filters="sRGB"><feFuncR type="discrete" tableValues="0.000000 0.000000"/><feFuncG type="discrete" tableValues="0.000000 0.000000"/><feFuncB type="discrete" tableValues="0.000000 0.000000"/><feFuncA type="linear" slope="0.400000" intercept="0.000000"/></feComponentTransfer><feGaussianBlur stdDeviation="6.111111 6.111111"/></filter><filter id="fx1" x="-10%" y="-10%" width="120%" height="120%" filterUnits="userSpaceOnUse" primitiveUnits="userSpaceOnUse"><feComponentTransfer color-interpolation-filters="sRGB"><feFuncR type="discrete" tableValues="0.000000 0.000000"/><feFuncG type="discrete" tableValues="0.000000 0.000000"/><feFuncB type="discrete" tableValues="0.000000 0.000000"/><feFuncA type="linear" slope="0.400000" intercept="0.000000"/></feComponentTransfer><feGaussianBlur stdDeviation="6.111111 6.111111"/></filter><filter id="fx2" x="-10%" y="-10%" width="120%" height="120%" filterUnits="userSpaceOnUse" primitiveUnits="userSpaceOnUse"><feComponentTransfer color-interpolation-filters="sRGB"><feFuncR type="discrete" tableValues="0.000000 0.000000"/><feFuncG type="discrete" tableValues="0.000000 0.000000"/><feFuncB type="discrete" tableValues="0.000000 0.000000"/><feFuncA type="linear" slope="0.400000" intercept="0.000000"/></feComponentTransfer><feGaussianBlur stdDeviation="6.111111 6.111111"/></filter><filter id="fx3" x="-10%" y="-10%" width="120%" height="120%" filterUnits="userSpaceOnUse" primitiveUnits="userSpaceOnUse"><feComponentTransfer color-interpolation-filters="sRGB"><feFuncR type="discrete" tableValues="0.000000 0.000000"/><feFuncG type="discrete" tableValues="0.000000 0.000000"/><feFuncB type="discrete" tableValues="0.000000 0.000000"/><feFuncA type="linear" slope="0.400000" intercept="0.000000"/></feComponentTransfer><feGaussianBlur stdDeviation="6.111111 6.111111"/></filter><filter id="fx4" x="-10%" y="-10%" width="120%" height="120%" filterUnits="userSpaceOnUse" primitiveUnits="userSpaceOnUse"><feComponentTransfer color-interpolation-filters="sRGB"><feFuncR type="discrete" tableValues="0.000000 0.000000"/><feFuncG type="discrete" tableValues="0.000000 0.000000"/><feFuncB type="discrete" tableValues="0.000000 0.000000"/><feFuncA type="linear" slope="0.400000" intercept="0.000000"/></feComponentTransfer><feGaussianBlur stdDeviation="6.111111 6.111111"/></filter><filter id="fx5" x="-10%" y="-10%" width="120%" height="120%" filterUnits="userSpaceOnUse" primitiveUnits="userSpaceOnUse"><feComponentTransfer color-interpolation-filters="sRGB"><feFuncR type="discrete" tableValues="0.000000 0.000000"/><feFuncG type="discrete" tableValues="0.000000 0.000000"/><feFuncB type="discrete" tableValues="0.000000 0.000000"/><feFuncA type="linear" slope="0.400000" intercept="0.000000"/></feComponentTransfer><feGaussianBlur stdDeviation="6.111111 6.111111"/></filter><filter id="fx6" x="-10%" y="-10%" width="120%" height="120%" filterUnits="userSpaceOnUse" primitiveUnits="userSpaceOnUse"><feComponentTransfer color-interpolation-filters="sRGB"><feFuncR type="discrete" tableValues="0.000000 0.000000"/><feFuncG type="discrete" tableValues="0.000000 0.000000"/><feFuncB type="discrete" tableValues="0.000000 0.000000"/><feFuncA type="linear" slope="0.400000" intercept="0.000000"/></feComponentTransfer><feGaussianBlur stdDeviation="6.111111 6.111111"/></filter><filter id="fx7" x="-10%" y="-10%" width="120%" height="120%" filterUnits="userSpaceOnUse" primitiveUnits="userSpaceOnUse"><feComponentTransfer color-interpolation-filters="sRGB"><feFuncR type="discrete" tableValues="0.000000 0.000000"/><feFuncG type="discrete" tableValues="0.000000 0.000000"/><feFuncB type="discrete" tableValues="0.000000 0.000000"/><feFuncA type="linear" slope="0.400000" intercept="0.000000"/></feComponentTransfer><feGaussianBlur stdDeviation="6.111111 6.111111"/></filter><filter id="fx8" x="-10%" y="-10%" width="120%" height="120%" filterUnits="userSpaceOnUse" primitiveUnits="userSpaceOnUse"><feComponentTransfer color-interpolation-filters="sRGB"><feFuncR type="discrete" tableValues="0.000000 0.000000"/><feFuncG type="discrete" tableValues="0.000000 0.000000"/><feFuncB type="discrete" tableValues="0.000000 0.000000"/><feFuncA type="linear" slope="0.400000" intercept="0.000000"/></feComponentTransfer><feGaussianBlur stdDeviation="6.111111 6.111111"/></filter><filter id="fx9" x="-10%" y="-10%" width="120%" height="120%" filterUnits="userSpaceOnUse" primitiveUnits="userSpaceOnUse"><feComponentTransfer color-interpolation-filters="sRGB"><feFuncR type="discrete" tableValues="0.000000 0.000000"/><feFuncG type="discrete" tableValues="0.000000 0.000000"/><feFuncB type="discrete" tableValues="0.000000 0.000000"/><feFuncA type="linear" slope="0.400000" intercept="0.000000"/></feComponentTransfer><feGaussianBlur stdDeviation="6.111111 6.111111"/></filter><clipPath id="clip10"><rect x="1.38947" y="1.94397" width="356.667" height="277.667"/></clipPath><clipPath id="clip11"><rect x="1.77203" y="1.27539" width="154.299" height="400.986"/></clipPath><clipPath id="clip12"><rect x="1.45959" y="1.44165" width="211.291" height="251.879"/></clipPath><clipPath id="clip13"><rect x="32.3922" y="32.8231" width="213.047" height="218.133"/></clipPath><clipPath id="clip14"><rect x="1.38953" y="1.94403" width="166.667" height="167.667"/></clipPath><clipPath id="clip15"><rect x="1.38916" y="1.94385" width="166.667" height="166.667"/></clipPath><clipPath id="clip16"><rect x="1.38934" y="1.94409" width="166.667" height="166.667"/></clipPath><clipPath id="clip17"><rect x="1.21954" y="1.86658" width="183.848" height="409.663"/></clipPath><clipPath id="clip18"><rect x="1.82117" y="1.14978" width="155.237" height="222.961"/></clipPath><clipPath id="clip19"><rect x="1.38928" y="1.94409" width="166.667" height="167.667"/></clipPath></defs><g transform="translate(-641 -834)"><g><g clip-path="url(#clip10)" filter="url(#fx0)" transform="translate(733 1317)"><g><g><path d="M26.7228 65.1114C26.7228 44.2162 43.6617 27.2773 64.5568 27.2773L294.889 27.2773C315.784 27.2773 332.723 44.2162 332.723 65.1114L332.723 216.443C332.723 237.338 315.784 254.277 294.889 254.277L64.5568 254.277C43.6617 254.277 26.7228 237.338 26.7228 216.443Z" stroke="#11567F" stroke-width="14" stroke-linecap="butt" stroke-linejoin="miter" stroke-miterlimit="8" stroke-opacity="1" fill="none" fill-rule="evenodd"/></g></g></g><path d="M750 1391.83C750 1370.94 766.939 1354 787.834 1354L1018.17 1354C1039.06 1354 1056 1370.94 1056 1391.83L1056 1543.17C1056 1564.06 1039.06 1581 1018.17 1581L787.834 1581C766.939 1581 750 1564.06 750 1543.17Z" stroke="#11567F" stroke-width="13.75" stroke-linecap="butt" stroke-linejoin="miter" stroke-miterlimit="8" stroke-opacity="1" fill="none" fill-rule="evenodd"/><g clip-path="url(#clip11)" filter="url(#fx1)" transform="translate(793 958)"><g><g><path d="M25.2227 28.7773C36.6783 35.1711 48.1338 41.5649 57.2982 48.2451 66.4626 54.9253 73.7177 62.3686 80.2093 68.858 86.7009 75.3474 91.2831 79.5461 96.247 87.1806 101.211 94.8151 105.602 103.976 109.994 114.664 114.385 125.353 119.731 139.286 122.595 151.31 125.458 163.334 126.795 175.931 127.177 186.81 127.559 197.689 125.458 206.087 124.886 216.584 124.313 227.081 124.504 240.06 123.74 249.794 122.977 259.528 122.786 264.299 120.304 274.987 117.822 285.675 112.094 304.38 108.848 313.923 105.602 323.465 102.548 320.603 100.829 332.245 99.1111 343.888 98.8246 363.833 98.5382 383.777" stroke="#11567F" stroke-width="21" stroke-linecap="butt" stroke-linejoin="miter" stroke-miterlimit="8" stroke-opacity="1" fill="none" fill-rule="evenodd"/></g></g></g><path d="M808.5 996.5C819.956 1002.89 831.411 1009.29 840.576 1015.97 849.74 1022.65 856.995 1030.09 863.487 1036.58 869.978 1043.07 874.56 1047.27 879.524 1054.9 884.488 1062.54 888.88 1071.7 893.271 1082.39 897.662 1093.08 903.008 1107.01 905.872 1119.03 908.736 1131.06 910.073 1143.65 910.454 1154.53 910.836 1165.41 908.736 1173.81 908.163 1184.31 907.591 1194.8 907.781 1207.78 907.018 1217.52 906.254 1227.25 906.063 1232.02 903.581 1242.71 901.099 1253.4 895.371 1272.1 892.125 1281.65 888.88 1291.19 885.825 1288.33 884.107 1299.97 882.388 1311.61 882.102 1331.56 881.815 1351.5" stroke="#11567F" stroke-width="20.625" stroke-linecap="butt" stroke-linejoin="miter" stroke-miterlimit="8" stroke-opacity="1" fill="none" fill-rule="evenodd"/><g clip-path="url(#clip12)" filter="url(#fx2)" transform="translate(903 1110)"><g><g><path d="M191.223 29.7772C180.756 33.1198 170.289 36.4627 160.393 41.2379 150.497 46.0131 139.65 53.6537 131.847 58.4289 124.044 63.2041 119.096 65.4962 113.577 69.8895 108.058 74.2829 98.7335 84.7884 98.7335 84.7884 92.834 90.7097 84.6509 97.5861 78.1803 105.418 71.7097 113.249 65.4298 122.418 59.9108 131.777 54.3919 141.137 48.8729 152.406 45.0669 161.575 41.2608 170.743 38.9771 179.339 37.074 186.788 35.1708 194.238 34.7903 198.44 33.6484 206.271 32.5066 214.103 31.3647 223.94 30.2229 233.777" stroke="#11567F" stroke-width="21" stroke-linecap="butt" stroke-linejoin="miter" stroke-miterlimit="8" stroke-opacity="1" fill="none" fill-rule="evenodd"/></g></g></g><path d="M1084.5 1149.5C1074.03 1152.84 1063.57 1156.19 1053.67 1160.96 1043.77 1165.74 1032.93 1173.38 1025.12 1178.15 1017.32 1182.93 1012.37 1185.22 1006.85 1189.61 1001.34 1194.01 992.011 1204.51 992.011 1204.51 986.111 1210.43 977.928 1217.31 971.458 1225.14 964.987 1232.97 958.707 1242.14 953.188 1251.5 947.669 1260.86 942.15 1272.13 938.344 1281.3 934.538 1290.47 932.254 1299.06 930.351 1306.51 928.448 1313.96 928.068 1318.16 926.926 1325.99 925.784 1333.83 924.642 1343.66 923.5 1353.5" stroke="#11567F" stroke-width="20.625" stroke-linecap="butt" stroke-linejoin="miter" stroke-miterlimit="8" stroke-opacity="1" fill="none" fill-rule="evenodd"/><g clip-path="url(#clip13)" filter="url(#fx3)" transform="translate(770 1314)"><g><g><g><g><g><path d="M115.876 186.575C83.7322 181.282 60.1764 153.45 60.2699 120.873 60.3184 116.838 60.7299 112.816 61.4999 108.855L61.7049 108.855 66.3943 116.978C67.8096 119.433 70.9474 120.277 73.4027 118.861 75.8581 117.446 76.7014 114.308 75.2862 111.853L64.3956 93.0187C63.7175 91.8458 62.6028 90.9889 61.2949 90.6355 59.9801 90.2822 58.5787 90.4667 57.3999 91.148L38.4375 102.09C35.9296 103.402 34.9599 106.499 36.2719 109.007 37.5839 111.515 40.6807 112.484 43.1886 111.172 43.3162 111.106 43.441 111.034 43.5625 110.956L51.4037 106.421C50.4917 111.184 50.0284 116.023 50.02 120.873 49.9036 158.428 77.0333 190.528 114.082 196.672L114.954 196.672C117.784 196.898 120.262 194.787 120.489 191.957 120.715 189.126 118.604 186.648 115.774 186.422Z" stroke="#11567F" stroke-width="6.92958" stroke-linecap="butt" stroke-linejoin="miter" stroke-miterlimit="4" stroke-opacity="1" fill="none" fill-rule="nonzero" transform="matrix(1 0 0 1 19.7227 20.2773)"/><path d="M203.77 120.873C203.78 111.716 202.158 102.631 198.978 94.0437 197.987 91.3902 195.033 90.0421 192.38 91.0327 189.726 92.0234 188.378 94.9777 189.369 97.6312 202.2 132.117 184.645 170.476 150.159 183.307 149.913 183.399 149.666 183.489 149.419 183.577L149.419 183.577 154.083 175.429C155.498 172.966 154.649 169.823 152.187 168.407 149.724 166.992 146.581 167.841 145.165 170.304L134.403 189.189C132.995 191.645 133.844 194.776 136.299 196.185 136.299 196.185 136.299 196.185 136.299 196.185L155.185 206.973C157.647 208.388 160.791 207.539 162.206 205.077 163.621 202.614 162.772 199.471 160.31 198.055L152.315 193.52C183.233 182.794 203.912 153.598 203.77 120.873Z" stroke="#11567F" stroke-width="6.92958" stroke-linecap="butt" stroke-linejoin="miter" stroke-miterlimit="4" stroke-opacity="1" fill="none" fill-rule="nonzero" transform="matrix(1 0 0 1 19.7227 20.2773)"/><path d="M160.207 69.5462C157.377 69.5462 155.082 71.8406 155.082 74.6712 155.082 77.5017 157.377 79.7962 160.207 79.7962L181.271 79.7962C181.467 79.8087 181.664 79.8087 181.86 79.7962 182.847 79.7964 183.811 79.502 184.628 78.9506L184.987 78.7199 185.14 78.5918 185.474 78.3355C186.477 77.3792 187.05 76.0572 187.062 74.6712L187.062 52.9412C187.062 50.1107 184.768 47.8162 181.937 47.8162 179.107 47.8162 176.812 50.1107 176.812 52.9412L176.812 62.2943C144.497 34.7575 95.9766 38.6314 68.4397 70.9471 68.3211 71.086 68.2032 71.2256 68.0856 71.3656 66.26 73.5309 66.5352 76.7663 68.7006 78.5918 70.8659 80.4173 74.1013 80.1421 75.9268 77.9768 99.4605 49.9459 141.2 46.1475 169.407 69.4693Z" stroke="#11567F" stroke-width="6.92958" stroke-linecap="butt" stroke-linejoin="miter" stroke-miterlimit="4" stroke-opacity="1" fill="none" fill-rule="nonzero" transform="matrix(1 0 0 1 19.7227 20.2773)"/></g></g></g></g></g></g><g><g><g><path d="M115.876 186.575C83.7322 181.282 60.1764 153.45 60.2699 120.873 60.3184 116.838 60.7299 112.816 61.4999 108.855L61.7049 108.855 66.3943 116.978C67.8096 119.433 70.9474 120.277 73.4027 118.861 75.8581 117.446 76.7014 114.308 75.2862 111.853L64.3956 93.0187C63.7175 91.8458 62.6028 90.9889 61.2949 90.6355 59.9801 90.2822 58.5787 90.4667 57.3999 91.148L38.4375 102.09C35.9296 103.402 34.9599 106.499 36.2719 109.007 37.5839 111.515 40.6807 112.484 43.1886 111.172 43.3162 111.106 43.441 111.034 43.5625 110.956L51.4037 106.421C50.4917 111.184 50.0284 116.023 50.02 120.873 49.9036 158.428 77.0333 190.528 114.082 196.672L114.954 196.672C117.784 196.898 120.262 194.787 120.489 191.957 120.715 189.126 118.604 186.648 115.774 186.422Z" stroke="#11567F" stroke-width="6.92958" stroke-linecap="butt" stroke-linejoin="miter" stroke-miterlimit="4" stroke-opacity="1" fill="none" fill-rule="nonzero" transform="matrix(1 0 0 1 780 1344)"/><path d="M203.77 120.873C203.78 111.716 202.158 102.631 198.978 94.0437 197.987 91.3902 195.033 90.0421 192.38 91.0327 189.726 92.0234 188.378 94.9777 189.369 97.6312 202.2 132.117 184.645 170.476 150.159 183.307 149.913 183.399 149.666 183.489 149.419 183.577L149.419 183.577 154.083 175.429C155.498 172.966 154.649 169.823 152.187 168.407 149.724 166.992 146.581 167.841 145.165 170.304L134.403 189.189C132.995 191.645 133.844 194.776 136.299 196.185 136.299 196.185 136.299 196.185 136.299 196.185L155.185 206.973C157.647 208.388 160.791 207.539 162.206 205.077 163.621 202.614 162.772 199.471 160.31 198.055L152.315 193.52C183.233 182.794 203.912 153.598 203.77 120.873Z" stroke="#11567F" stroke-width="6.92958" stroke-linecap="butt" stroke-linejoin="miter" stroke-miterlimit="4" stroke-opacity="1" fill="none" fill-rule="nonzero" transform="matrix(1 0 0 1 780 1344)"/><path d="M160.207 69.5462C157.377 69.5462 155.082 71.8406 155.082 74.6712 155.082 77.5017 157.377 79.7962 160.207 79.7962L181.271 79.7962C181.467 79.8087 181.664 79.8087 181.86 79.7962 182.847 79.7964 183.811 79.502 184.628 78.9506L184.987 78.7199 185.14 78.5918 185.474 78.3355C186.477 77.3792 187.05 76.0572 187.062 74.6712L187.062 52.9412C187.062 50.1107 184.768 47.8162 181.937 47.8162 179.107 47.8162 176.812 50.1107 176.812 52.9412L176.812 62.2943C144.497 34.7575 95.9766 38.6314 68.4397 70.9471 68.3211 71.086 68.2032 71.2256 68.0856 71.3656 66.26 73.5309 66.5352 76.7663 68.7006 78.5918 70.8659 80.4173 74.1013 80.1421 75.9268 77.9768 99.4605 49.9459 141.2 46.1475 169.407 69.4693Z" stroke="#11567F" stroke-width="6.92958" stroke-linecap="butt" stroke-linejoin="miter" stroke-miterlimit="4" stroke-opacity="1" fill="none" fill-rule="nonzero" transform="matrix(1 0 0 1 780 1344)"/></g></g></g><g clip-path="url(#clip14)" filter="url(#fx4)" transform="translate(681 879)"><g><g><path d="M26.7229 85.7773C26.7229 53.4687 52.6903 27.2774 84.7228 27.2774 116.755 27.2774 142.723 53.4687 142.723 85.7773 142.723 118.086 116.755 144.277 84.7228 144.277 52.6903 144.277 26.7229 118.086 26.7229 85.7773Z" stroke="#11567F" stroke-width="14" stroke-linecap="butt" stroke-linejoin="miter" stroke-miterlimit="8" stroke-opacity="1" fill="none" fill-rule="evenodd"/></g></g></g><path d="M698 974.5C698 942.191 723.968 916 756 916 788.033 916 814 942.191 814 974.5 814 1006.81 788.033 1033 756 1033 723.968 1033 698 1006.81 698 974.5Z" stroke="#11567F" stroke-width="13.75" stroke-linecap="butt" stroke-linejoin="miter" stroke-miterlimit="8" stroke-opacity="1" fill="none" fill-rule="evenodd"/><g clip-path="url(#clip15)" filter="url(#fx5)" transform="translate(1067 1037)"><g><g><path d="M26.7225 85.2772C26.7225 53.2446 52.6901 27.2771 84.7226 27.2771 116.755 27.2771 142.723 53.2446 142.723 85.2772 142.723 117.31 116.755 143.277 84.7226 143.277 52.6901 143.277 26.7225 117.31 26.7225 85.2772Z" stroke="#11567F" stroke-width="14" stroke-linecap="butt" stroke-linejoin="miter" stroke-miterlimit="8" stroke-opacity="1" fill="none" fill-rule="evenodd"/></g></g></g><path d="M1084 1132C1084 1099.97 1109.97 1074 1142 1074 1174.03 1074 1200 1099.97 1200 1132 1200 1164.03 1174.03 1190 1142 1190 1109.97 1190 1084 1164.03 1084 1132Z" stroke="#11567F" stroke-width="13.75" stroke-linecap="butt" stroke-linejoin="miter" stroke-miterlimit="8" stroke-opacity="1" fill="none" fill-rule="evenodd"/><g clip-path="url(#clip16)" filter="url(#fx6)" transform="translate(642 1068)"><g><g><path d="M26.7227 85.2774C26.7227 53.2449 52.6902 27.2775 84.7227 27.2775 116.755 27.2775 142.723 53.2449 142.723 85.2774 142.723 117.31 116.755 143.277 84.7227 143.277 52.6902 143.277 26.7227 117.31 26.7227 85.2774Z" stroke="#11567F" stroke-width="14" stroke-linecap="butt" stroke-linejoin="miter" stroke-miterlimit="8" stroke-opacity="1" fill="none" fill-rule="evenodd"/></g></g></g><path d="M659 1163C659 1130.97 684.967 1105 717 1105 749.033 1105 775 1130.97 775 1163 775 1195.03 749.033 1221 717 1221 684.967 1221 659 1195.03 659 1163Z" stroke="#11567F" stroke-width="13.75" stroke-linecap="butt" stroke-linejoin="miter" stroke-miterlimit="8" stroke-opacity="1" fill="none" fill-rule="evenodd"/><g clip-path="url(#clip17)" filter="url(#fx7)" transform="translate(862 959)"><g><g><path d="M153.656 21.7771C155.656 34.9404 157.656 48.1041 154.799 67.5633 151.942 87.0224 148.132 112.396 136.513 138.532 124.893 164.668 98.2252 202.632 85.082 224.381 71.9388 246.129 64.8905 254.523 57.6523 269.022 50.414 283.521 45.6516 300.691 41.6516 311.375 37.6516 322.058 35.5563 320.913 33.6513 333.123 31.7463 345.333 30.2226 384.632 30.2226 384.632L30.2226 384.632 31.3655 385.777" stroke="#11567F" stroke-width="21" stroke-linecap="butt" stroke-linejoin="miter" stroke-miterlimit="8" stroke-opacity="1" fill="none" fill-rule="evenodd"/></g></g></g><path d="M1005.93 990.5C1007.93 1003.66 1009.93 1016.83 1007.08 1036.29 1004.22 1055.75 1000.41 1081.12 988.79 1107.25 977.17 1133.39 950.502 1171.36 937.359 1193.1 924.216 1214.85 917.168 1223.25 909.93 1237.75 902.691 1252.24 897.929 1269.41 893.929 1280.1 889.929 1290.78 887.834 1289.64 885.929 1301.85 884.024 1314.06 882.5 1353.36 882.5 1353.36L882.5 1353.36 883.643 1354.5" stroke="#11567F" stroke-width="20.625" stroke-linecap="butt" stroke-linejoin="miter" stroke-miterlimit="8" stroke-opacity="1" fill="none" fill-rule="evenodd"/><g clip-path="url(#clip18)" filter="url(#fx8)" transform="translate(764 1137)"><g><g><path d="M22.2228 29.7775C30.2815 31.3965 38.3402 33.0156 45.2477 35.4918 52.1552 37.9679 57.5278 41.206 63.6676 44.6346 69.8075 48.0632 76.7153 51.8726 82.0876 56.0632 87.4598 60.2538 91.1057 64.2536 95.9025 69.7775 100.699 75.3013 106.647 82.7297 110.869 89.206 115.09 95.6824 118.544 101.777 121.23 108.635 123.916 115.492 125.835 123.873 126.986 130.349 128.137 136.825 127.946 138.73 128.137 147.492 128.329 156.254 128.137 182.92 128.137 182.92L128.137 205.777" stroke="#11567F" stroke-width="21" stroke-linecap="butt" stroke-linejoin="miter" stroke-miterlimit="8" stroke-opacity="1" fill="none" fill-rule="evenodd"/></g></g></g><path d="M776.5 1176.5C784.559 1178.12 792.617 1179.74 799.525 1182.21 806.432 1184.69 811.805 1187.93 817.945 1191.36 824.085 1194.79 830.993 1198.6 836.365 1202.79 841.737 1206.98 845.383 1210.98 850.18 1216.5 854.977 1222.02 860.925 1229.45 865.146 1235.93 869.367 1242.41 872.821 1248.5 875.507 1255.36 878.193 1262.21 880.112 1270.6 881.263 1277.07 882.415 1283.55 882.223 1285.45 882.415 1294.21 882.607 1302.98 882.415 1329.64 882.415 1329.64L882.415 1352.5" stroke="#11567F" stroke-width="20.625" stroke-linecap="butt" stroke-linejoin="miter" stroke-miterlimit="8" stroke-opacity="1" fill="none" fill-rule="evenodd"/><g clip-path="url(#clip19)" filter="url(#fx9)" transform="translate(925 837)"><g><g><path d="M26.7226 85.7774C26.7226 53.4688 52.6901 27.2775 84.7227 27.2775 116.755 27.2775 142.723 53.4688 142.723 85.7774 142.723 118.086 116.755 144.277 84.7227 144.277 52.6901 144.277 26.7226 118.086 26.7226 85.7774Z" stroke="#11567F" stroke-width="14" stroke-linecap="butt" stroke-linejoin="miter" stroke-miterlimit="8" stroke-opacity="1" fill="none" fill-rule="evenodd"/></g></g></g><path d="M942 932.5C942 900.191 967.967 874 1000 874 1032.03 874 1058 900.191 1058 932.5 1058 964.809 1032.03 991 1000 991 967.967 991 942 964.809 942 932.5Z" stroke="#11567F" stroke-width="13.75" stroke-linecap="butt" stroke-linejoin="miter" stroke-miterlimit="8" stroke-opacity="1" fill="none" fill-rule="evenodd"/></g></g></svg>